# xmcd
#
# Track frame offsets: 
#        150
#        12464
#        22572
#        35198
#        49668
#        62004
#        80074
#        94536
#        110527
#        126011
#        139583
#        154509
#        179855
#        191598
#        204394
#        218180
#        231783
#        247910
#        260373
#        279131
#        292699
#        302764
#
# Disc length: 4245 seconds
#
# Revision: 0
# Processed by: cddbd v1.5.2PL0 Copyright (c) Steve Scherf et al.
# Submitted via: ExactAudioCopyFreeDBPlugin 1.0
#
DISCID=29109316
DTITLE=Various Artist - Very Best Of Tex - Mex Music
DYEAR=1900
DGENRE=Folk/Rock
TTITLE0=Sir Douglas Quintet - Mendocino (Original !)
TTITLE1=Flaco Jimenez - La Viejita
TTITLE2=Freddy Fender - Vaya Con Dios (Remake)
TTITLE3=Sir Douglas Quintet - Dallas Alice
TTITLE4=Sir Douglas Quintet and Doug Sahm - Baby, Let's Go To Mexico
TTITLE5=Flaco Jimenez - Los Niños
TTITLE6=Texas Tornados - Amor De Mi Vida
TTITLE7=Texas Tornados - A Little Bit Is Better Then Nada
TTITLE8=Flaco Jimenez - Love Me Do
TTITLE9=Texas Tornados - Mi Morenita
TTITLE10=Flaco Jimenez - Soul Mates
TTITLE11=Texas Tornados - 4 Aces
TTITLE12=Texas Tornados - El Pantalon Blue Jean
TTITLE13=Flaco Jimenez - Te Quiero Mas
TTITLE14=Texas Tornadoes - Is Anybody Goin' To San Antone
TTITLE15=Texas Tornados - In My Mind
TTITLE16=Flaco Jimenez - Spanish Eyes
TTITLE17=Texas Tornados - Adios Mexico
TTITLE18=Texas Tornados - Ando Muy Borracho
TTITLE19=Texas Tornados - (Hey Baby) Que Paso
TTITLE20=Flaco Jimenez - La Feria Polka
TTITLE21=Texas Tornados - He Is A Tejano
EXTD=
EXTT0=
EXTT1=
EXTT2=
EXTT3=
EXTT4=
EXTT5=
EXTT6=
EXTT7=
EXTT8=
EXTT9=
EXTT10=
EXTT11=
EXTT12=
EXTT13=
EXTT14=
EXTT15=
EXTT16=
EXTT17=
EXTT18=
EXTT19=
EXTT20=
EXTT21=
PLAYORDER=
